<svg xmlns="http://www.w3.org/2000/svg" width="136" height="20" fill="none" viewBox="0 0 136 20"><path fill="#1a1b22" d="M0 15.2344v-1.709l1.51367-.293V3.02734L0 2.73438V1.01562h4.4043l6.1914 9.86328.0586-.0098V3.02734l-1.81641-.29296V1.01562h5.88871v1.71876l-1.5235.29296V15.2344h-2.7539L4.12109 5.46875l-.05859.00977v7.75388l1.82617.293v1.709zm20.791.2051c-1.0156 0-1.901-.2214-2.6562-.6641-.7487-.4492-1.3314-1.0645-1.7481-1.8457-.4101-.7813-.6152-1.6732-.6152-2.6758v-.39062c0-1.04818.1953-1.97591.5859-2.7832.3906-.8138.9408-1.45182 1.6504-1.91406q1.0743-.703125 2.5293-.69336 2.1387 0 3.2715 1.25976c.7552.83334 1.1328 2.00521 1.1328 3.51563v1.55275h-6.2109l-.0196.0586c.0521.6966.2832 1.2695.6934 1.7187s.9928.6739 1.748.6739c.5209 0 1.0059-.0652 1.4551-.1954.4558-.1367.8985-.3352 1.3281-.5957l.7715 1.7579c-.4362.3515-.9863.6445-1.6504.8789-.6575.2278-1.4127.3418-2.2656.3418M18.75 8.91602h3.5254v-.25391c0-.63802-.1335-1.14258-.4004-1.51367-.2604-.37761-.6901-.56641-1.2891-.56641q-.85935 0-1.3086.6543c-.2994.42969-.485.97331-.5566 1.63086zm10.9668 6.31838-2.4609-8.61331-1.2891-.23437V4.66797h5.1074v1.70898l-1.1133.21485.9766 4.1113.1953.8106h.0586l.2637-.8106 2.1679-6.03513h1.9141l2.0996 6.11323.2735.8594h.0586l.2539-.8594 1.1523-4.17964-1.2305-.22461V4.66797h5v1.71875l-1.2304.23437-2.6856 8.61331h-2.4023L34.8926 10l-.3418-1.16211h-.0586l-.3418 1.17191-1.9043 5.2246zm18.8672.2051c-.7878 0-1.5235-.0749-2.207-.2247-.6771-.1497-1.3282-.3645-1.9532-.6445l-.0293-2.9883h1.9825l.3808 1.5235c.2214.1106.4623.1985.7227.2636.2669.0651.5696.0977.9082.0977.638 0 1.0872-.1042 1.3476-.3125s.3907-.4688.3907-.7813c0-.2929-.14-.5501-.42-.7714-.2799-.2279-.83-.4265-1.6504-.5957-1.2565-.2605-2.1809-.6641-2.7734-1.21098-.5859-.54687-.8789-1.24674-.8789-2.09961 0-.57942.1465-1.11328.4395-1.60156.2994-.48828.7519-.87565 1.3574-1.16211.612-.29297 1.3932-.43945 2.3437-.43945.7943 0 1.5202.07812 2.1778.23437.664.14974 1.2207.34831 1.6699.59571l.0293 2.89062h-1.9727l-.3027-1.38672c-.3776-.26041-.8529-.39062-1.4258-.39062-.4948 0-.8789.10416-1.1523.3125-.267.20182-.4004.45898-.4004.77148 0 .27344.1172.52083.3515.74219.2409.21484.765.41341 1.5723.5957 1.3086.29948 2.2624.69987 2.8613 1.20118q.8985.7422.8985 2.0898c0 .9831-.3581 1.7774-1.0743 2.3828-.7096.6055-1.774.9083-3.1933.9083m5.498-.2051v-1.709l1.5137-.293V3.02734l-1.5137-.29296V1.01562h11.0352v3.8379h-2.1875l-.127-1.64063h-4.3554v3.57422h4.8144v2.19727h-4.8144v4.06252h4.5898l.127-1.6992h2.1679v3.8867zm12.5196 0v-1.709l1.3574-.1758 3.0273-3.40819-2.8613-3.38868-1.2793-.16601V4.66797h5.2344v1.64062l-.8203.12696 1.5332 2.01172 1.5332-2.01172-.9082-.12696V4.66797h5.0488v1.71875l-1.1816.16601-2.7051 3.27149 3.0176 3.52538 1.2988.1758v1.709h-5.4199v-1.6309l.9179-.1269-1.6308-2.0215-1.5918 2.0312.8984.1172v1.6309zm13.1445 4.0625v-1.7188l1.3769-.2929V6.67969l-1.5234-.29297V4.66797h4.1406l.1368 1.23047c.3125-.45573.6901-.80729 1.1328-1.05469s.97-.37109 1.582-.37109c.8529 0 1.582.23437 2.1875.70312.6055.46224 1.0677 1.11003 1.3867 1.94336.3255.83333.4883 1.80664.4883 2.91996v.205c0 1.0417-.1628 1.9532-.4883 2.7344-.3255.7748-.7943 1.3802-1.4062 1.8164-.6055.4297-1.3347.6446-2.1875.6446-1.1133 0-1.9825-.4037-2.6075-1.211v3.0567l1.377.2929v1.7188zm5.9766-6.0449c.7291 0 1.2565-.2702 1.582-.8106.332-.5404.498-1.2728.498-2.1973v-.205c0-.99613-.1692-1.80342-.5078-2.42191-.3385-.61849-.8691-.92774-1.5918-.92774-.7942 0-1.3737.33854-1.7383 1.01563V12.334c.3581.612.9441.918 1.7579.918m5.8496 1.9824v-1.709l1.3769-.293V2.01172l-1.5234-.29297V0h4.375v13.2324l1.3769.293v1.709zm11.3867.2051c-1.048 0-1.947-.2279-2.695-.6836-.7425-.4558-1.3122-1.0873-1.7093-1.8946-.3971-.8138-.5957-1.748-.5957-2.8027v-.20508c0-1.04818.1986-1.97592.5957-2.78321.3971-.8138.9668-1.44857 1.7093-1.90429.748-.46224 1.64-.69336 2.675-.69336 1.042 0 1.934.22786 2.676.68359.749.45573 1.322 1.09049 1.719 1.9043.397.80729.596 1.73828.596 2.79297v.20508c0 1.0547-.199 1.9889-.596 2.8027-.397.8073-.967 1.4388-1.709 1.8946-.742.4557-1.631.6836-2.666.6836m0-2.1875q1.104 0 1.611-.879c.345-.5859.518-1.3574.518-2.3144v-.20508c0-.9375-.173-1.70248-.518-2.29493-.345-.59244-.888-.88867-1.631-.88867-.742 0-1.282.29623-1.621.88867-.338.59245-.507 1.35743-.507 2.29493v.20508c0 .9635.169 1.7383.507 2.3242.339.5794.886.8692 1.641.8692m6.465 1.9824v-1.709l1.367-.293V6.67969l-1.514-.29297V4.66797h4.17l.108 1.30859.019.23438c.521-1.15886 1.302-1.73828 2.344-1.73828.169 0 .352.01302.547.03906.202.02604.384.0651.547.11719l-.303 2.62695-1.416-.07813c-.404-.01953-.732.04883-.986.20508-.248.15625-.469.38086-.664.67383v5.17576l1.367.293v1.709zm13.301.2051c-1.016 0-1.901-.2214-2.657-.6641-.748-.4492-1.331-1.0645-1.748-1.8457-.41-.7813-.615-1.6732-.615-2.6758v-.39062c0-1.04818.195-1.97591.586-2.7832q.5865-1.2207 1.65-1.91406c.717-.46875 1.56-.69987 2.53-.69336 1.425 0 2.516.41992 3.271 1.25976.755.83334 1.133 2.00521 1.133 3.51563v1.55275h-6.211l-.019.0586q.078 1.0449.693 1.7187c.41.4492.993.6739 1.748.6739.521 0 1.006-.0652 1.455-.1954.456-.1367.898-.3352 1.328-.5957l.772 1.7579c-.437.3515-.987.6445-1.651.8789-.657.2278-1.413.3418-2.265.3418m-2.041-6.52348h3.525v-.25391c0-.63802-.133-1.14258-.4-1.51367-.261-.37761-.691-.56641-1.289-.56641-.573 0-1.01.2181-1.309.6543-.3.42969-.485.97331-.557 1.63086zm7.724 6.31838v-1.709l1.367-.293V6.67969l-1.513-.29297V4.66797h4.17l.107 1.30859.02.23438c.52-1.15886 1.302-1.73828 2.343-1.73828.17 0 .352.01302.547.03906.202.02604.384.0651.547.11719l-.303 2.62695-1.416-.07813c-.403-.01953-.732.04883-.986.20508-.247.15625-.469.38086-.664.67383v5.17576l1.367.293v1.709z"/></svg>